<?xml version="1.0" standalone="no"?>
<!DOCTYPE svg PUBLIC "-//W3C//DTD SVG 20010904//EN"
 "http://www.w3.org/TR/2001/REC-SVG-20010904/DTD/svg10.dtd">
<svg version="1.0" xmlns="http://www.w3.org/2000/svg"
 width="325.000000pt" height="142.000000pt" viewBox="0 0 325.000000 142.000000"
 preserveAspectRatio="xMidYMid meet">

<g transform="translate(0.000000,142.000000) scale(0.100000,-0.100000)"
fill="#000000" stroke="none">
<path d="M2455 1253 c-64 -64 -82 -234 -35 -327 41 -80 50 -81 125 -6 l65 64
0 76 0 76 -69 68 c-66 65 -69 67 -86 49z"/>
<path d="M500 1200 c-24 -24 -26 -67 -4 -98 11 -16 25 -22 54 -22 70 0 100 70
53 123 -22 23 -78 22 -103 -3z"/>
<path d="M1907 1064 c-44 -19 -77 -74 -77 -130 0 -27 -7 -41 -25 -56 -14 -11
-25 -30 -25 -44 0 -19 5 -24 25 -24 l25 0 0 -145 0 -145 50 0 50 0 0 145 0
145 50 0 50 0 0 39 0 40 -47 3 -48 3 -3 40 c-4 46 14 65 64 65 28 0 32 4 37
33 2 17 3 34 1 36 -11 12 -94 9 -127 -5z"/>
<path d="M490 750 l0 -250 65 0 65 0 0 250 0 250 -65 0 -65 0 0 -250z"/>
<path d="M2100 936 c0 -38 -3 -45 -25 -50 -21 -5 -25 -12 -25 -41 0 -30 3 -35
24 -35 24 0 24 -1 28 -121 l3 -121 33 -29 c25 -22 42 -29 75 -29 75 0 87 7 87
51 0 38 -1 39 -34 39 -56 0 -66 19 -66 121 l0 89 50 0 50 0 0 39 0 40 -47 3
-48 3 -3 43 -3 42 -50 0 -49 0 0 -44z"/>
<path d="M2561 896 c-35 -35 -60 -69 -57 -75 14 -21 92 -59 146 -70 64 -13
138 -3 198 28 73 37 73 44 1 117 l-63 64 -81 0 -81 0 -63 -64z"/>
<path d="M845 900 c-53 -12 -94 -40 -123 -82 -23 -35 -27 -52 -27 -108 0 -56
4 -73 28 -108 50 -77 165 -109 243 -69 55 29 61 44 29 77 -26 28 -30 29 -46
14 -10 -9 -36 -18 -58 -21 -35 -5 -44 -2 -71 25 -25 25 -30 38 -30 77 0 40 5
52 34 81 39 39 67 42 111 16 30 -19 30 -19 63 6 32 24 32 25 15 44 -37 41
-109 61 -168 48z"/>
<path d="M1515 905 c-5 -2 -22 -6 -37 -9 -39 -9 -88 -54 -109 -101 -44 -97 -6
-215 86 -262 45 -24 130 -21 165 6 36 26 40 26 40 1 0 -17 7 -20 45 -20 l45 0
0 185 0 185 -45 0 c-33 0 -45 -4 -45 -15 0 -19 -5 -19 -38 4 -26 18 -86 33
-107 26z m84 -99 c68 -36 68 -156 0 -192 -37 -18 -65 -18 -99 3 -67 39 -68
145 -2 186 33 20 65 21 101 3z"/>
<path d="M1202 875 c-36 -30 -42 -31 -42 -5 0 17 -7 20 -45 20 l-45 0 0 -185
0 -185 44 0 44 0 3 114 c4 105 6 117 28 140 28 30 84 48 118 40 20 -5 23 -3
23 24 0 17 3 37 6 46 5 13 -3 16 -49 16 -45 0 -61 -5 -85 -25z"/>
<path d="M533 315 c-3 -9 -3 -18 -1 -21 3 -3 8 4 11 16 6 23 -1 27 -10 5z"/>
<path d="M735 320 c3 -5 8 -10 11 -10 2 0 4 5 4 10 0 6 -5 10 -11 10 -5 0 -7
-4 -4 -10z"/>
<path d="M890 281 c0 -47 2 -51 24 -51 13 0 34 9 47 19 20 16 22 23 14 47 -9
24 -17 30 -48 32 l-37 3 0 -50z m68 11 c4 -26 -13 -52 -34 -52 -10 0 -14 13
-14 41 0 36 2 40 23 37 14 -2 23 -11 25 -26z"/>
<path d="M1040 280 c0 -27 5 -50 10 -50 6 0 10 23 10 50 0 28 -4 50 -10 50 -5
0 -10 -22 -10 -50z"/>
<path d="M1130 315 c7 -8 18 -32 26 -52 10 -29 13 -32 14 -15 0 13 7 37 15 55
l16 32 -20 -23 c-20 -23 -20 -23 -31 -2 -6 11 -16 20 -22 20 -7 0 -6 -5 2 -15z"/>
<path d="M1342 283 l-2 -53 33 1 c29 2 29 2 5 6 -24 4 -27 9 -31 51 l-3 47 -2
-52z"/>
<path d="M1471 278 c1 -55 5 -50 11 15 2 20 0 37 -4 37 -4 0 -7 -24 -7 -52z"/>
<path d="M1539 288 c0 -37 -2 -40 -12 -25 -29 45 -36 49 -17 10 11 -24 25 -43
30 -43 6 0 10 23 10 50 0 28 -2 50 -5 50 -3 0 -5 -19 -6 -42z"/>
<path d="M1753 280 c0 -30 2 -43 4 -27 2 15 2 39 0 55 -2 15 -4 2 -4 -28z"/>
<path d="M1823 280 c0 -30 2 -43 4 -27 2 15 2 39 0 55 -2 15 -4 2 -4 -28z"/>
<path d="M1970 290 c-5 -41 -7 -45 -32 -45 -14 1 -24 -3 -22 -7 8 -13 41 -9
53 6 7 8 11 32 9 53 l-4 38 -4 -45z"/>
<path d="M2183 280 c0 -30 2 -43 4 -27 2 15 2 39 0 55 -2 15 -4 2 -4 -28z"/>
<path d="M2280 320 c0 -6 4 -9 9 -6 5 4 12 1 14 -4 3 -6 4 -5 3 2 -3 15 -26
23 -26 8z"/>
<path d="M2663 314 c-3 -9 0 -20 8 -25 22 -14 35 -10 14 4 -10 8 -15 19 -11
25 4 7 5 12 1 12 -3 0 -8 -7 -12 -16z"/>
<path d="M2051 304 c0 -11 3 -14 6 -6 3 7 2 16 -1 19 -3 4 -6 -2 -5 -13z"/>
<path d="M611 288 c0 -9 -4 -25 -7 -35 -5 -17 -5 -17 6 0 6 10 9 25 7 35 -4
15 -5 15 -6 0z"/>
<path d="M736 291 c-4 -5 -2 -20 3 -33 9 -21 9 -20 8 9 -2 36 -3 38 -11 24z"/>
<path d="M2271 293 c-1 -6 -4 -20 -7 -30 -5 -17 -5 -17 6 0 6 10 9 23 6 30 -3
9 -5 9 -5 0z"/>
<path d="M2400 294 c0 -3 11 -9 25 -14 14 -5 25 -16 25 -25 0 -18 -31 -20 -50
-2 -12 10 -12 9 -1 -5 16 -22 50 -23 57 -3 8 19 -10 41 -36 48 -11 3 -20 3
-20 1z"/>
<path d="M2083 279 c28 -16 22 -42 -9 -36 -16 3 -22 1 -16 -5 15 -15 46 -5 50
16 4 18 -13 36 -33 36 -5 -1 -2 -5 8 -11z"/>
<path d="M530 264 c0 -18 27 -36 47 -31 14 4 14 5 -4 6 -12 0 -27 9 -32 19 -6
9 -11 12 -11 6z"/>
<path d="M2663 250 c5 -18 35 -26 50 -11 7 7 3 8 -13 4 -13 -4 -26 0 -32 8 -8
12 -9 11 -5 -1z"/>
</g>
</svg>
